<svg width="15" height="33" viewBox="0 0 15 33" fill="none" xmlns="http://www.w3.org/2000/svg">
<path d="M7.46739 12C3.95267 12 0.616154 15.2717 1.03582 19.7872C1.06842 20.138 1.10734 20.506 1.15255 20.8976C1.28708 22.0626 2.0722 22.9091 2.98255 22.9091H4.02316L4.78237 29.0083C4.99698 30.7324 6.147 32 7.49659 32C8.84617 32 9.99619 30.7324 10.2108 29.0083L10.97 22.9091H12.024C12.9284 22.9091 13.7112 22.0741 13.8492 20.9175C13.8933 20.5479 13.9312 20.1989 13.9629 19.8643C14.3934 15.3166 11.0081 12 7.46739 12Z" fill="#447151" stroke="#447151" stroke-width="1.5" stroke-linejoin="round"/>
<path d="M8 12C11.3137 12 14 9.53757 14 6.5C14 3.46243 11.3137 1 8 1C4.68629 1 2 3.46243 2 6.5C2 9.53757 4.68629 12 8 12Z" fill="#447151" stroke="#447151" stroke-width="1.5" stroke-linecap="round" stroke-linejoin="round"/>
</svg>
