<svg width="51" height="52" viewBox="0 0 51 52" fill="none" xmlns="http://www.w3.org/2000/svg">
<path d="M50.5 26C50.5 40.0925 39.298 51.5 25.5 51.5C11.702 51.5 0.5 40.0925 0.5 26C0.5 11.9075 11.702 0.5 25.5 0.5C39.298 0.5 50.5 11.9075 50.5 26Z" fill="white" stroke="#447151"/>
<path d="M25.4674 21C21.9527 21 18.6162 24.2717 19.0358 28.7872C19.0684 29.138 19.1073 29.506 19.1525 29.8976C19.2871 31.0626 20.0722 31.9091 20.9825 31.9091H22.0232L22.7824 38.0083C22.997 39.7324 24.147 41 25.4966 41C26.8462 41 27.9962 39.7324 28.2108 38.0083L28.97 31.9091H30.024C30.9284 31.9091 31.7112 31.0741 31.8492 29.9175C31.8933 29.5479 31.9312 29.1989 31.9629 28.8643C32.3934 24.3166 29.0081 21 25.4674 21Z" fill="#447151" stroke="#447151" stroke-width="1.5" stroke-linejoin="round"/>
<path d="M26 21C29.3137 21 32 18.5376 32 15.5C32 12.4624 29.3137 10 26 10C22.6863 10 20 12.4624 20 15.5C20 18.5376 22.6863 21 26 21Z" fill="#447151" stroke="#447151" stroke-width="1.5" stroke-linecap="round" stroke-linejoin="round"/>
</svg>
