<svg width="51" height="52" viewBox="0 0 51 52" fill="none" xmlns="http://www.w3.org/2000/svg">
<path d="M50.5 26C50.5 40.0925 39.298 51.5 25.5 51.5C11.702 51.5 0.5 40.0925 0.5 26C0.5 11.9075 11.702 0.5 25.5 0.5C39.298 0.5 50.5 11.9075 50.5 26Z" fill="white" stroke="#447151"/>
<path d="M34.573 22.3262L34.1473 21.2961C35.6054 17.9331 35.5087 17.8332 35.2255 17.5414L33.3628 15.6843L33.178 15.5254H32.9622C32.8484 15.5254 32.5087 15.5254 29.6772 16.8359L28.6351 16.4071C27.2882 13 27.1501 13 26.7557 13H24.128C23.7341 13 23.581 12.9996 22.3318 16.4193L21.2942 16.8492C19.3808 16.0247 18.2586 15.6073 17.9557 15.6073L17.7073 15.6152L15.7038 17.6198C15.3998 17.9115 15.2937 18.0144 16.8354 21.3254L16.4112 22.3519C13 23.6976 13 23.8281 13 24.2399V26.8691C13 27.2815 13 27.4269 16.4226 28.678L16.8468 29.7027C15.3889 33.0639 15.4868 33.1648 15.7701 33.4538L17.6328 35.3131L17.818 35.4757H18.0349C18.1469 35.4757 18.4824 35.4757 21.3179 34.1624L22.3581 34.5941C23.7052 38.0008 23.8436 38 24.2388 38H26.867C27.2688 38 27.4114 38 28.6643 34.582L29.7072 34.1516C31.6184 34.9764 32.738 35.3951 33.039 35.3951L33.2891 35.3879L35.308 33.371C35.5952 33.0752 35.6957 32.973 34.1626 29.6757L34.5839 28.6484C38 27.3013 38 27.1599 38 26.7574V24.1312C37.9996 23.7174 37.9996 23.5729 34.573 22.3262ZM25.4994 29.8737C23.0897 29.8737 21.1276 27.9104 21.1276 25.4979C21.1276 23.0873 23.0898 21.1258 25.4994 21.1258C27.9077 21.1258 29.8657 23.0877 29.8657 25.4979C29.8653 27.9104 27.9073 29.8737 25.4994 29.8737Z" fill="#447151" stroke="#447151"/>
</svg>
