<svg width="69" height="66" viewBox="0 0 69 66" fill="none" xmlns="http://www.w3.org/2000/svg">
<path d="M68.5 33C68.5 50.9285 53.2989 65.5 34.5 65.5C15.7011 65.5 0.5 50.9285 0.5 33C0.5 15.0715 15.7011 0.5 34.5 0.5C53.2989 0.5 68.5 15.0715 68.5 33Z" fill="white" stroke="#447151"/>
<mask id="path-2-outside-1_635_85" maskUnits="userSpaceOnUse" x="19" y="13" width="32" height="43" fill="black">
<rect fill="white" x="19" y="13" width="32" height="43"/>
<path d="M34.8516 54.5469C32.0911 54.5469 29.6302 54.0391 27.4688 53.0234C25.3203 52.0078 23.6146 50.6081 22.3516 48.8242C21.0885 47.0404 20.431 44.9961 20.3789 42.6914H28.582C28.6732 44.2409 29.3242 45.4974 30.5352 46.4609C31.7461 47.4245 33.1849 47.9062 34.8516 47.9062C36.1797 47.9062 37.3516 47.6133 38.3672 47.0273C39.3958 46.4284 40.1966 45.6016 40.7695 44.5469C41.3555 43.4792 41.6484 42.2552 41.6484 40.875C41.6484 39.4687 41.349 38.2318 40.75 37.1641C40.1641 36.0964 39.3503 35.263 38.3086 34.6641C37.2669 34.0651 36.0755 33.7591 34.7344 33.7461C33.5625 33.7461 32.4232 33.987 31.3164 34.4687C30.2227 34.9505 29.3698 35.6081 28.7578 36.4414L21.2383 35.0938L23.1328 14H47.5859V20.9141H30.1055L29.0703 30.9336H29.3047C30.0078 29.944 31.069 29.1237 32.4883 28.4727C33.9076 27.8216 35.4961 27.4961 37.2539 27.4961C39.6628 27.4961 41.8112 28.0625 43.6992 29.1953C45.5872 30.3281 47.0781 31.8841 48.1719 33.8633C49.2656 35.8294 49.806 38.0951 49.793 40.6602C49.806 43.3555 49.181 45.7513 47.918 47.8477C46.668 49.931 44.9167 51.5716 42.6641 52.7695C40.4245 53.9544 37.8203 54.5469 34.8516 54.5469Z"/>
</mask>
<path d="M34.8516 54.5469C32.0911 54.5469 29.6302 54.0391 27.4688 53.0234C25.3203 52.0078 23.6146 50.6081 22.3516 48.8242C21.0885 47.0404 20.431 44.9961 20.3789 42.6914H28.582C28.6732 44.2409 29.3242 45.4974 30.5352 46.4609C31.7461 47.4245 33.1849 47.9062 34.8516 47.9062C36.1797 47.9062 37.3516 47.6133 38.3672 47.0273C39.3958 46.4284 40.1966 45.6016 40.7695 44.5469C41.3555 43.4792 41.6484 42.2552 41.6484 40.875C41.6484 39.4687 41.349 38.2318 40.75 37.1641C40.1641 36.0964 39.3503 35.263 38.3086 34.6641C37.2669 34.0651 36.0755 33.7591 34.7344 33.7461C33.5625 33.7461 32.4232 33.987 31.3164 34.4687C30.2227 34.9505 29.3698 35.6081 28.7578 36.4414L21.2383 35.0938L23.1328 14H47.5859V20.9141H30.1055L29.0703 30.9336H29.3047C30.0078 29.944 31.069 29.1237 32.4883 28.4727C33.9076 27.8216 35.4961 27.4961 37.2539 27.4961C39.6628 27.4961 41.8112 28.0625 43.6992 29.1953C45.5872 30.3281 47.0781 31.8841 48.1719 33.8633C49.2656 35.8294 49.806 38.0951 49.793 40.6602C49.806 43.3555 49.181 45.7513 47.918 47.8477C46.668 49.931 44.9167 51.5716 42.6641 52.7695C40.4245 53.9544 37.8203 54.5469 34.8516 54.5469Z" fill="white"/>
<path d="M27.4688 53.0234L27.0414 53.9275L27.0435 53.9285L27.4688 53.0234ZM22.3516 48.8242L23.1677 48.2464L22.3516 48.8242ZM20.3789 42.6914V41.6914H19.3561L19.3792 42.714L20.3789 42.6914ZM28.582 42.6914L29.5803 42.6327L29.5249 41.6914H28.582V42.6914ZM30.5352 46.4609L31.1578 45.6784L30.5352 46.4609ZM38.3672 47.0273L38.8669 47.8935L38.8704 47.8915L38.3672 47.0273ZM40.7695 44.5469L39.8929 44.0658L39.8908 44.0695L40.7695 44.5469ZM40.75 37.1641L39.8733 37.6452L39.8779 37.6533L40.75 37.1641ZM38.3086 34.6641L37.8101 35.531L38.3086 34.6641ZM34.7344 33.7461L34.7441 32.7461H34.7344V33.7461ZM31.3164 34.4688L30.9173 33.5518L30.9133 33.5536L31.3164 34.4688ZM28.7578 36.4414L28.5814 37.4257L29.1949 37.5357L29.5638 37.0333L28.7578 36.4414ZM21.2383 35.0938L20.2423 35.0043L20.1604 35.9165L21.0619 36.0781L21.2383 35.0938ZM23.1328 14V13H22.2186L22.1368 13.9105L23.1328 14ZM47.5859 14H48.5859V13H47.5859V14ZM47.5859 20.9141V21.9141H48.5859V20.9141H47.5859ZM30.1055 20.9141V19.9141H29.2035L29.1108 20.8113L30.1055 20.9141ZM29.0703 30.9336L28.0756 30.8308L27.9617 31.9336H29.0703V30.9336ZM29.3047 30.9336V31.9336H29.8209L30.1199 31.5128L29.3047 30.9336ZM32.4883 28.4727L32.9052 29.3816V29.3816L32.4883 28.4727ZM43.6992 29.1953L44.2137 28.3378L43.6992 29.1953ZM48.1719 33.8633L47.2966 34.347L47.298 34.3494L48.1719 33.8633ZM49.793 40.6602L48.7929 40.6551L48.793 40.665L49.793 40.6602ZM47.918 47.8477L47.0614 47.3316L47.0605 47.3332L47.918 47.8477ZM42.6641 52.7695L43.1317 53.6534L43.1336 53.6524L42.6641 52.7695ZM34.8516 53.5469C32.2153 53.5469 29.9032 53.0624 27.894 52.1184L27.0435 53.9285C29.3572 55.0157 31.967 55.5469 34.8516 55.5469V53.5469ZM27.8961 52.1194C25.8892 51.1706 24.3228 49.8778 23.1677 48.2464L21.5354 49.4021C22.9064 51.3384 24.7514 52.845 27.0414 53.9275L27.8961 52.1194ZM23.1677 48.2464C22.0263 46.6343 21.4265 44.7858 21.3787 42.6688L19.3792 42.714C19.4355 45.2064 20.1508 47.4464 21.5354 49.4021L23.1677 48.2464ZM20.3789 43.6914H28.582V41.6914H20.3789V43.6914ZM27.5838 42.7501C27.6915 44.5823 28.4785 46.1024 29.9125 47.2434L31.1578 45.6784C30.17 44.8924 29.6548 43.8995 29.5803 42.6327L27.5838 42.7501ZM29.9125 47.2434C31.3145 48.359 32.9774 48.9062 34.8516 48.9062V46.9062C33.3924 46.9062 32.1777 46.49 31.1578 45.6784L29.9125 47.2434ZM34.8516 48.9062C36.3314 48.9062 37.68 48.5783 38.8669 47.8935L37.8675 46.1612C37.0231 46.6483 36.028 46.9062 34.8516 46.9062V48.9062ZM38.8704 47.8915C40.0586 47.1996 40.9887 46.2384 41.6483 45.0242L39.8908 44.0695C39.4045 44.9648 38.733 45.6572 37.864 46.1632L38.8704 47.8915ZM41.6462 45.028C42.3233 43.7941 42.6484 42.4007 42.6484 40.875H40.6484C40.6484 42.1097 40.3876 43.1642 39.8929 44.0658L41.6462 45.028ZM42.6484 40.875C42.6484 39.3232 42.3167 37.9129 41.6221 36.6748L39.8779 37.6533C40.3812 38.5506 40.6484 39.6143 40.6484 40.875H42.6484ZM41.6267 36.683C40.9537 35.4567 40.0101 34.4889 38.8071 33.7972L37.8101 35.531C38.6905 36.0372 39.3744 36.736 39.8733 37.6452L41.6267 36.683ZM38.8071 33.7972C37.5999 33.103 36.2365 32.7606 34.7441 32.7461L34.7247 34.746C35.9145 34.7576 36.934 35.0272 37.8101 35.531L38.8071 33.7972ZM34.7344 32.7461C33.421 32.7461 32.1461 33.017 30.9173 33.5518L31.7155 35.3856C32.7003 34.957 33.704 34.7461 34.7344 34.7461V32.7461ZM30.9133 33.5536C29.6846 34.0948 28.6827 34.8543 27.9518 35.8495L29.5638 37.0333C30.0569 36.3619 30.7607 35.8062 31.7195 35.3839L30.9133 33.5536ZM28.9342 35.4571L21.4147 34.1094L21.0619 36.0781L28.5814 37.4257L28.9342 35.4571ZM22.2343 35.1832L24.1288 14.0895L22.1368 13.9105L20.2423 35.0043L22.2343 35.1832ZM23.1328 15H47.5859V13H23.1328V15ZM46.5859 14V20.9141H48.5859V14H46.5859ZM47.5859 19.9141H30.1055V21.9141H47.5859V19.9141ZM29.1108 20.8113L28.0756 30.8308L30.065 31.0364L31.1002 21.0168L29.1108 20.8113ZM29.0703 31.9336H29.3047V29.9336H29.0703V31.9336ZM30.1199 31.5128C30.6963 30.7015 31.6007 29.98 32.9052 29.3816L32.0713 27.5637C30.5374 28.2674 29.3193 29.1866 28.4895 30.3544L30.1199 31.5128ZM32.9052 29.3816C34.1781 28.7977 35.6219 28.4961 37.2539 28.4961V26.4961C35.3703 26.4961 33.637 26.8455 32.0713 27.5637L32.9052 29.3816ZM37.2539 28.4961C39.4991 28.4961 41.4665 29.0219 43.1847 30.0528L44.2137 28.3378C42.1559 27.1031 39.8264 26.4961 37.2539 26.4961V28.4961ZM43.1847 30.0528C44.9174 31.0924 46.2857 32.5176 47.2966 34.347L49.0471 33.3796C47.8706 31.2506 46.257 29.5638 44.2137 28.3378L43.1847 30.0528ZM47.298 34.3494C48.2971 36.1454 48.8053 38.2374 48.793 40.6551L50.793 40.6652C50.8067 37.9527 50.2342 35.5135 49.0458 33.3771L47.298 34.3494ZM48.793 40.665C48.8052 43.196 48.2203 45.4081 47.0614 47.3316L48.7745 48.3637C50.1417 46.0945 50.8068 43.515 50.793 40.6553L48.793 40.665ZM47.0605 47.3332C45.9087 49.2528 44.2951 50.7695 42.1945 51.8866L43.1336 53.6524C45.5382 52.3737 47.4272 50.6092 48.7755 48.3622L47.0605 47.3332ZM42.1964 51.8856C40.1238 52.9822 37.6853 53.5469 34.8516 53.5469V55.5469C37.9553 55.5469 40.7252 54.9267 43.1317 53.6534L42.1964 51.8856Z" fill="#447151" mask="url(#path-2-outside-1_635_85)"/>
<path d="M68.5 33C68.5 50.9285 53.2989 65.5 34.5 65.5C15.7011 65.5 0.5 50.9285 0.5 33C0.5 15.0715 15.7011 0.5 34.5 0.5C53.2989 0.5 68.5 15.0715 68.5 33Z" fill="white" stroke="#447151"/>
<mask id="path-5-outside-2_635_85" maskUnits="userSpaceOnUse" x="19" y="13" width="32" height="43" fill="black">
<rect fill="white" x="19" y="13" width="32" height="43"/>
<path d="M34.8516 54.5469C32.0911 54.5469 29.6302 54.0391 27.4688 53.0234C25.3203 52.0078 23.6146 50.6081 22.3516 48.8242C21.0885 47.0404 20.431 44.9961 20.3789 42.6914H28.582C28.6732 44.2409 29.3242 45.4974 30.5352 46.4609C31.7461 47.4245 33.1849 47.9062 34.8516 47.9062C36.1797 47.9062 37.3516 47.6133 38.3672 47.0273C39.3958 46.4284 40.1966 45.6016 40.7695 44.5469C41.3555 43.4792 41.6484 42.2552 41.6484 40.875C41.6484 39.4687 41.349 38.2318 40.75 37.1641C40.1641 36.0964 39.3503 35.263 38.3086 34.6641C37.2669 34.0651 36.0755 33.7591 34.7344 33.7461C33.5625 33.7461 32.4232 33.987 31.3164 34.4687C30.2227 34.9505 29.3698 35.6081 28.7578 36.4414L21.2383 35.0938L23.1328 14H47.5859V20.9141H30.1055L29.0703 30.9336H29.3047C30.0078 29.944 31.069 29.1237 32.4883 28.4727C33.9076 27.8216 35.4961 27.4961 37.2539 27.4961C39.6628 27.4961 41.8112 28.0625 43.6992 29.1953C45.5872 30.3281 47.0781 31.8841 48.1719 33.8633C49.2656 35.8294 49.806 38.0951 49.793 40.6602C49.806 43.3555 49.181 45.7513 47.918 47.8477C46.668 49.931 44.9167 51.5716 42.6641 52.7695C40.4245 53.9544 37.8203 54.5469 34.8516 54.5469Z"/>
</mask>
<path d="M34.8516 54.5469C32.0911 54.5469 29.6302 54.0391 27.4688 53.0234C25.3203 52.0078 23.6146 50.6081 22.3516 48.8242C21.0885 47.0404 20.431 44.9961 20.3789 42.6914H28.582C28.6732 44.2409 29.3242 45.4974 30.5352 46.4609C31.7461 47.4245 33.1849 47.9062 34.8516 47.9062C36.1797 47.9062 37.3516 47.6133 38.3672 47.0273C39.3958 46.4284 40.1966 45.6016 40.7695 44.5469C41.3555 43.4792 41.6484 42.2552 41.6484 40.875C41.6484 39.4687 41.349 38.2318 40.75 37.1641C40.1641 36.0964 39.3503 35.263 38.3086 34.6641C37.2669 34.0651 36.0755 33.7591 34.7344 33.7461C33.5625 33.7461 32.4232 33.987 31.3164 34.4687C30.2227 34.9505 29.3698 35.6081 28.7578 36.4414L21.2383 35.0938L23.1328 14H47.5859V20.9141H30.1055L29.0703 30.9336H29.3047C30.0078 29.944 31.069 29.1237 32.4883 28.4727C33.9076 27.8216 35.4961 27.4961 37.2539 27.4961C39.6628 27.4961 41.8112 28.0625 43.6992 29.1953C45.5872 30.3281 47.0781 31.8841 48.1719 33.8633C49.2656 35.8294 49.806 38.0951 49.793 40.6602C49.806 43.3555 49.181 45.7513 47.918 47.8477C46.668 49.931 44.9167 51.5716 42.6641 52.7695C40.4245 53.9544 37.8203 54.5469 34.8516 54.5469Z" fill="white"/>
<path d="M27.4688 53.0234L27.0414 53.9275L27.0435 53.9285L27.4688 53.0234ZM22.3516 48.8242L23.1677 48.2464L22.3516 48.8242ZM20.3789 42.6914V41.6914H19.3561L19.3792 42.714L20.3789 42.6914ZM28.582 42.6914L29.5803 42.6327L29.5249 41.6914H28.582V42.6914ZM30.5352 46.4609L31.1578 45.6784L30.5352 46.4609ZM38.3672 47.0273L38.8669 47.8935L38.8704 47.8915L38.3672 47.0273ZM40.7695 44.5469L39.8929 44.0658L39.8908 44.0695L40.7695 44.5469ZM40.75 37.1641L39.8733 37.6452L39.8779 37.6533L40.75 37.1641ZM38.3086 34.6641L37.8101 35.531L38.3086 34.6641ZM34.7344 33.7461L34.7441 32.7461H34.7344V33.7461ZM31.3164 34.4688L30.9173 33.5518L30.9133 33.5536L31.3164 34.4688ZM28.7578 36.4414L28.5814 37.4257L29.1949 37.5357L29.5638 37.0333L28.7578 36.4414ZM21.2383 35.0938L20.2423 35.0043L20.1604 35.9165L21.0619 36.0781L21.2383 35.0938ZM23.1328 14V13H22.2186L22.1368 13.9105L23.1328 14ZM47.5859 14H48.5859V13H47.5859V14ZM47.5859 20.9141V21.9141H48.5859V20.9141H47.5859ZM30.1055 20.9141V19.9141H29.2035L29.1108 20.8113L30.1055 20.9141ZM29.0703 30.9336L28.0756 30.8308L27.9617 31.9336H29.0703V30.9336ZM29.3047 30.9336V31.9336H29.8209L30.1199 31.5128L29.3047 30.9336ZM32.4883 28.4727L32.9052 29.3816V29.3816L32.4883 28.4727ZM43.6992 29.1953L44.2137 28.3378L43.6992 29.1953ZM48.1719 33.8633L47.2966 34.347L47.298 34.3494L48.1719 33.8633ZM49.793 40.6602L48.7929 40.6551L48.793 40.665L49.793 40.6602ZM47.918 47.8477L47.0614 47.3316L47.0605 47.3332L47.918 47.8477ZM42.6641 52.7695L43.1317 53.6534L43.1336 53.6524L42.6641 52.7695ZM34.8516 53.5469C32.2153 53.5469 29.9032 53.0624 27.894 52.1184L27.0435 53.9285C29.3572 55.0157 31.967 55.5469 34.8516 55.5469V53.5469ZM27.8961 52.1194C25.8892 51.1706 24.3228 49.8778 23.1677 48.2464L21.5354 49.4021C22.9064 51.3384 24.7514 52.845 27.0414 53.9275L27.8961 52.1194ZM23.1677 48.2464C22.0263 46.6343 21.4265 44.7858 21.3787 42.6688L19.3792 42.714C19.4355 45.2064 20.1508 47.4464 21.5354 49.4021L23.1677 48.2464ZM20.3789 43.6914H28.582V41.6914H20.3789V43.6914ZM27.5838 42.7501C27.6915 44.5823 28.4785 46.1024 29.9125 47.2434L31.1578 45.6784C30.17 44.8924 29.6548 43.8995 29.5803 42.6327L27.5838 42.7501ZM29.9125 47.2434C31.3145 48.359 32.9774 48.9062 34.8516 48.9062V46.9062C33.3924 46.9062 32.1777 46.49 31.1578 45.6784L29.9125 47.2434ZM34.8516 48.9062C36.3314 48.9062 37.68 48.5783 38.8669 47.8935L37.8675 46.1612C37.0231 46.6483 36.028 46.9062 34.8516 46.9062V48.9062ZM38.8704 47.8915C40.0586 47.1996 40.9887 46.2384 41.6483 45.0242L39.8908 44.0695C39.4045 44.9648 38.733 45.6572 37.864 46.1632L38.8704 47.8915ZM41.6462 45.028C42.3233 43.7941 42.6484 42.4007 42.6484 40.875H40.6484C40.6484 42.1097 40.3876 43.1642 39.8929 44.0658L41.6462 45.028ZM42.6484 40.875C42.6484 39.3232 42.3167 37.9129 41.6221 36.6748L39.8779 37.6533C40.3812 38.5506 40.6484 39.6143 40.6484 40.875H42.6484ZM41.6267 36.683C40.9537 35.4567 40.0101 34.4889 38.8071 33.7972L37.8101 35.531C38.6905 36.0372 39.3744 36.736 39.8733 37.6452L41.6267 36.683ZM38.8071 33.7972C37.5999 33.103 36.2365 32.7606 34.7441 32.7461L34.7247 34.746C35.9145 34.7576 36.934 35.0272 37.8101 35.531L38.8071 33.7972ZM34.7344 32.7461C33.421 32.7461 32.1461 33.017 30.9173 33.5518L31.7155 35.3856C32.7003 34.957 33.704 34.7461 34.7344 34.7461V32.7461ZM30.9133 33.5536C29.6846 34.0948 28.6827 34.8543 27.9518 35.8495L29.5638 37.0333C30.0569 36.3619 30.7607 35.8062 31.7195 35.3839L30.9133 33.5536ZM28.9342 35.4571L21.4147 34.1094L21.0619 36.0781L28.5814 37.4257L28.9342 35.4571ZM22.2343 35.1832L24.1288 14.0895L22.1368 13.9105L20.2423 35.0043L22.2343 35.1832ZM23.1328 15H47.5859V13H23.1328V15ZM46.5859 14V20.9141H48.5859V14H46.5859ZM47.5859 19.9141H30.1055V21.9141H47.5859V19.9141ZM29.1108 20.8113L28.0756 30.8308L30.065 31.0364L31.1002 21.0168L29.1108 20.8113ZM29.0703 31.9336H29.3047V29.9336H29.0703V31.9336ZM30.1199 31.5128C30.6963 30.7015 31.6007 29.98 32.9052 29.3816L32.0713 27.5637C30.5374 28.2674 29.3193 29.1866 28.4895 30.3544L30.1199 31.5128ZM32.9052 29.3816C34.1781 28.7977 35.6219 28.4961 37.2539 28.4961V26.4961C35.3703 26.4961 33.637 26.8455 32.0713 27.5637L32.9052 29.3816ZM37.2539 28.4961C39.4991 28.4961 41.4665 29.0219 43.1847 30.0528L44.2137 28.3378C42.1559 27.1031 39.8264 26.4961 37.2539 26.4961V28.4961ZM43.1847 30.0528C44.9174 31.0924 46.2857 32.5176 47.2966 34.347L49.0471 33.3796C47.8706 31.2506 46.257 29.5638 44.2137 28.3378L43.1847 30.0528ZM47.298 34.3494C48.2971 36.1454 48.8053 38.2374 48.793 40.6551L50.793 40.6652C50.8067 37.9527 50.2342 35.5135 49.0458 33.3771L47.298 34.3494ZM48.793 40.665C48.8052 43.196 48.2203 45.4081 47.0614 47.3316L48.7745 48.3637C50.1417 46.0945 50.8068 43.515 50.793 40.6553L48.793 40.665ZM47.0605 47.3332C45.9087 49.2528 44.2951 50.7695 42.1945 51.8866L43.1336 53.6524C45.5382 52.3737 47.4272 50.6092 48.7755 48.3622L47.0605 47.3332ZM42.1964 51.8856C40.1238 52.9822 37.6853 53.5469 34.8516 53.5469V55.5469C37.9553 55.5469 40.7252 54.9267 43.1317 53.6534L42.1964 51.8856Z" fill="#447151" mask="url(#path-5-outside-2_635_85)"/>
<path d="M68.5 33C68.5 50.9285 53.2989 65.5 34.5 65.5C15.7011 65.5 0.5 50.9285 0.5 33C0.5 15.0715 15.7011 0.5 34.5 0.5C53.2989 0.5 68.5 15.0715 68.5 33Z" fill="white" stroke="#447151"/>
<mask id="path-8-outside-3_635_85" maskUnits="userSpaceOnUse" x="19" y="13" width="32" height="43" fill="black">
<rect fill="white" x="19" y="13" width="32" height="43"/>
<path d="M34.8516 54.5469C32.0911 54.5469 29.6302 54.0391 27.4688 53.0234C25.3203 52.0078 23.6146 50.6081 22.3516 48.8242C21.0885 47.0404 20.431 44.9961 20.3789 42.6914H28.582C28.6732 44.2409 29.3242 45.4974 30.5352 46.4609C31.7461 47.4245 33.1849 47.9062 34.8516 47.9062C36.1797 47.9062 37.3516 47.6133 38.3672 47.0273C39.3958 46.4284 40.1966 45.6016 40.7695 44.5469C41.3555 43.4792 41.6484 42.2552 41.6484 40.875C41.6484 39.4687 41.349 38.2318 40.75 37.1641C40.1641 36.0964 39.3503 35.263 38.3086 34.6641C37.2669 34.0651 36.0755 33.7591 34.7344 33.7461C33.5625 33.7461 32.4232 33.987 31.3164 34.4687C30.2227 34.9505 29.3698 35.6081 28.7578 36.4414L21.2383 35.0938L23.1328 14H47.5859V20.9141H30.1055L29.0703 30.9336H29.3047C30.0078 29.944 31.069 29.1237 32.4883 28.4727C33.9076 27.8216 35.4961 27.4961 37.2539 27.4961C39.6628 27.4961 41.8112 28.0625 43.6992 29.1953C45.5872 30.3281 47.0781 31.8841 48.1719 33.8633C49.2656 35.8294 49.806 38.0951 49.793 40.6602C49.806 43.3555 49.181 45.7513 47.918 47.8477C46.668 49.931 44.9167 51.5716 42.6641 52.7695C40.4245 53.9544 37.8203 54.5469 34.8516 54.5469Z"/>
</mask>
<path d="M34.8516 54.5469C32.0911 54.5469 29.6302 54.0391 27.4688 53.0234C25.3203 52.0078 23.6146 50.6081 22.3516 48.8242C21.0885 47.0404 20.431 44.9961 20.3789 42.6914H28.582C28.6732 44.2409 29.3242 45.4974 30.5352 46.4609C31.7461 47.4245 33.1849 47.9062 34.8516 47.9062C36.1797 47.9062 37.3516 47.6133 38.3672 47.0273C39.3958 46.4284 40.1966 45.6016 40.7695 44.5469C41.3555 43.4792 41.6484 42.2552 41.6484 40.875C41.6484 39.4687 41.349 38.2318 40.75 37.1641C40.1641 36.0964 39.3503 35.263 38.3086 34.6641C37.2669 34.0651 36.0755 33.7591 34.7344 33.7461C33.5625 33.7461 32.4232 33.987 31.3164 34.4687C30.2227 34.9505 29.3698 35.6081 28.7578 36.4414L21.2383 35.0938L23.1328 14H47.5859V20.9141H30.1055L29.0703 30.9336H29.3047C30.0078 29.944 31.069 29.1237 32.4883 28.4727C33.9076 27.8216 35.4961 27.4961 37.2539 27.4961C39.6628 27.4961 41.8112 28.0625 43.6992 29.1953C45.5872 30.3281 47.0781 31.8841 48.1719 33.8633C49.2656 35.8294 49.806 38.0951 49.793 40.6602C49.806 43.3555 49.181 45.7513 47.918 47.8477C46.668 49.931 44.9167 51.5716 42.6641 52.7695C40.4245 53.9544 37.8203 54.5469 34.8516 54.5469Z" fill="#447151"/>
<path d="M27.4688 53.0234L27.0414 53.9275L27.0435 53.9285L27.4688 53.0234ZM22.3516 48.8242L23.1677 48.2464L22.3516 48.8242ZM20.3789 42.6914V41.6914H19.3561L19.3792 42.714L20.3789 42.6914ZM28.582 42.6914L29.5803 42.6327L29.5249 41.6914H28.582V42.6914ZM30.5352 46.4609L31.1578 45.6784L30.5352 46.4609ZM38.3672 47.0273L38.8669 47.8935L38.8704 47.8915L38.3672 47.0273ZM40.7695 44.5469L39.8929 44.0658L39.8908 44.0695L40.7695 44.5469ZM40.75 37.1641L39.8733 37.6452L39.8779 37.6533L40.75 37.1641ZM38.3086 34.6641L37.8101 35.531L38.3086 34.6641ZM34.7344 33.7461L34.7441 32.7461H34.7344V33.7461ZM31.3164 34.4688L30.9173 33.5518L30.9133 33.5536L31.3164 34.4688ZM28.7578 36.4414L28.5814 37.4257L29.1949 37.5357L29.5638 37.0333L28.7578 36.4414ZM21.2383 35.0938L20.2423 35.0043L20.1604 35.9165L21.0619 36.0781L21.2383 35.0938ZM23.1328 14V13H22.2186L22.1368 13.9105L23.1328 14ZM47.5859 14H48.5859V13H47.5859V14ZM47.5859 20.9141V21.9141H48.5859V20.9141H47.5859ZM30.1055 20.9141V19.9141H29.2035L29.1108 20.8113L30.1055 20.9141ZM29.0703 30.9336L28.0756 30.8308L27.9617 31.9336H29.0703V30.9336ZM29.3047 30.9336V31.9336H29.8209L30.1199 31.5128L29.3047 30.9336ZM32.4883 28.4727L32.9052 29.3816V29.3816L32.4883 28.4727ZM43.6992 29.1953L44.2137 28.3378L43.6992 29.1953ZM48.1719 33.8633L47.2966 34.347L47.298 34.3494L48.1719 33.8633ZM49.793 40.6602L48.7929 40.6551L48.793 40.665L49.793 40.6602ZM47.918 47.8477L47.0614 47.3316L47.0605 47.3332L47.918 47.8477ZM42.6641 52.7695L43.1317 53.6534L43.1336 53.6524L42.6641 52.7695ZM34.8516 53.5469C32.2153 53.5469 29.9032 53.0624 27.894 52.1184L27.0435 53.9285C29.3572 55.0157 31.967 55.5469 34.8516 55.5469V53.5469ZM27.8961 52.1194C25.8892 51.1706 24.3228 49.8778 23.1677 48.2464L21.5354 49.4021C22.9064 51.3384 24.7514 52.845 27.0414 53.9275L27.8961 52.1194ZM23.1677 48.2464C22.0263 46.6343 21.4265 44.7858 21.3787 42.6688L19.3792 42.714C19.4355 45.2064 20.1508 47.4464 21.5354 49.4021L23.1677 48.2464ZM20.3789 43.6914H28.582V41.6914H20.3789V43.6914ZM27.5838 42.7501C27.6915 44.5823 28.4785 46.1024 29.9125 47.2434L31.1578 45.6784C30.17 44.8924 29.6548 43.8995 29.5803 42.6327L27.5838 42.7501ZM29.9125 47.2434C31.3145 48.359 32.9774 48.9062 34.8516 48.9062V46.9062C33.3924 46.9062 32.1777 46.49 31.1578 45.6784L29.9125 47.2434ZM34.8516 48.9062C36.3314 48.9062 37.68 48.5783 38.8669 47.8935L37.8675 46.1612C37.0231 46.6483 36.028 46.9062 34.8516 46.9062V48.9062ZM38.8704 47.8915C40.0586 47.1996 40.9887 46.2384 41.6483 45.0242L39.8908 44.0695C39.4045 44.9648 38.733 45.6572 37.864 46.1632L38.8704 47.8915ZM41.6462 45.028C42.3233 43.7941 42.6484 42.4007 42.6484 40.875H40.6484C40.6484 42.1097 40.3876 43.1642 39.8929 44.0658L41.6462 45.028ZM42.6484 40.875C42.6484 39.3232 42.3167 37.9129 41.6221 36.6748L39.8779 37.6533C40.3812 38.5506 40.6484 39.6143 40.6484 40.875H42.6484ZM41.6267 36.683C40.9537 35.4567 40.0101 34.4889 38.8071 33.7972L37.8101 35.531C38.6905 36.0372 39.3744 36.736 39.8733 37.6452L41.6267 36.683ZM38.8071 33.7972C37.5999 33.103 36.2365 32.7606 34.7441 32.7461L34.7247 34.746C35.9145 34.7576 36.934 35.0272 37.8101 35.531L38.8071 33.7972ZM34.7344 32.7461C33.421 32.7461 32.1461 33.017 30.9173 33.5518L31.7155 35.3856C32.7003 34.957 33.704 34.7461 34.7344 34.7461V32.7461ZM30.9133 33.5536C29.6846 34.0948 28.6827 34.8543 27.9518 35.8495L29.5638 37.0333C30.0569 36.3619 30.7607 35.8062 31.7195 35.3839L30.9133 33.5536ZM28.9342 35.4571L21.4147 34.1094L21.0619 36.0781L28.5814 37.4257L28.9342 35.4571ZM22.2343 35.1832L24.1288 14.0895L22.1368 13.9105L20.2423 35.0043L22.2343 35.1832ZM23.1328 15H47.5859V13H23.1328V15ZM46.5859 14V20.9141H48.5859V14H46.5859ZM47.5859 19.9141H30.1055V21.9141H47.5859V19.9141ZM29.1108 20.8113L28.0756 30.8308L30.065 31.0364L31.1002 21.0168L29.1108 20.8113ZM29.0703 31.9336H29.3047V29.9336H29.0703V31.9336ZM30.1199 31.5128C30.6963 30.7015 31.6007 29.98 32.9052 29.3816L32.0713 27.5637C30.5374 28.2674 29.3193 29.1866 28.4895 30.3544L30.1199 31.5128ZM32.9052 29.3816C34.1781 28.7977 35.6219 28.4961 37.2539 28.4961V26.4961C35.3703 26.4961 33.637 26.8455 32.0713 27.5637L32.9052 29.3816ZM37.2539 28.4961C39.4991 28.4961 41.4665 29.0219 43.1847 30.0528L44.2137 28.3378C42.1559 27.1031 39.8264 26.4961 37.2539 26.4961V28.4961ZM43.1847 30.0528C44.9174 31.0924 46.2857 32.5176 47.2966 34.347L49.0471 33.3796C47.8706 31.2506 46.257 29.5638 44.2137 28.3378L43.1847 30.0528ZM47.298 34.3494C48.2971 36.1454 48.8053 38.2374 48.793 40.6551L50.793 40.6652C50.8067 37.9527 50.2342 35.5135 49.0458 33.3771L47.298 34.3494ZM48.793 40.665C48.8052 43.196 48.2203 45.4081 47.0614 47.3316L48.7745 48.3637C50.1417 46.0945 50.8068 43.515 50.793 40.6553L48.793 40.665ZM47.0605 47.3332C45.9087 49.2528 44.2951 50.7695 42.1945 51.8866L43.1336 53.6524C45.5382 52.3737 47.4272 50.6092 48.7755 48.3622L47.0605 47.3332ZM42.1964 51.8856C40.1238 52.9822 37.6853 53.5469 34.8516 53.5469V55.5469C37.9553 55.5469 40.7252 54.9267 43.1317 53.6534L42.1964 51.8856Z" fill="#447151" mask="url(#path-8-outside-3_635_85)"/>
</svg>
